<?xml version="1.0" standalone="no"?>
<!DOCTYPE svg PUBLIC "-//W3C//DTD SVG 20010904//EN"
 "http://www.w3.org/TR/2001/REC-SVG-20010904/DTD/svg10.dtd">
<svg version="1.0" xmlns="http://www.w3.org/2000/svg"
 width="391.000000pt" height="14.000000pt" viewBox="0 0 391.000000 14.000000"
 preserveAspectRatio="xMidYMid meet">

<g transform="translate(0.000000,14.000000) scale(0.100000,-0.100000)"
fill="#000000" stroke="none">
<path d="M1690 129 c-69 -4 -372 -13 -675 -19 -982 -20 -1006 -21 -1000 -31 4
-5 30 -9 58 -10 29 0 61 -4 72 -9 12 -5 -9 -6 -51 -3 -48 4 -73 2 -78 -6 -4
-6 -1 -12 6 -12 7 -1 24 -3 38 -6 141 -22 1288 -25 1680 -4 216 11 296 11 510
0 140 -8 460 -14 710 -14 250 0 474 -4 498 -9 25 -5 85 -3 145 4 72 8 127 9
186 2 46 -6 90 -8 98 -5 19 8 17 87 -4 104 -13 12 -135 14 -702 14 -377 0
-839 3 -1026 6 -187 4 -396 3 -465 -2z"/>
</g>
</svg>
