<?xml version="1.0" standalone="no"?>
<!DOCTYPE svg PUBLIC "-//W3C//DTD SVG 20010904//EN"
 "http://www.w3.org/TR/2001/REC-SVG-20010904/DTD/svg10.dtd">
<svg version="1.0" xmlns="http://www.w3.org/2000/svg"
 width="332.000000pt" height="18.000000pt" viewBox="0 0 332.000000 18.000000"
 preserveAspectRatio="xMidYMid meet">

<g transform="translate(0.000000,18.000000) scale(0.100000,-0.100000)"
fill="#000000" stroke="none">
<path d="M2630 159 c-306 -20 -1169 -45 -1910 -55 -278 -4 -514 -10 -524 -14
-11 -4 210 -10 490 -14 805 -10 1577 -33 1977 -57 180 -11 191 -11 260 9 66
20 235 47 332 55 59 4 25 13 -125 30 -75 9 -165 25 -200 36 -69 22 -108 23
-300 10z"/>
</g>
</svg>
